solid sides
 facet normal -0 -1 -0
  outer loop
   vertex 1 -1 -1.7000000476837158
   vertex 1 -1 3.2999999523162842
   vertex -1 -1 3.2999999523162842
  endloop
 endfacet
 facet normal 0 -1 0
  outer loop
   vertex 1 -1 -1.7000000476837158
   vertex -1 -1 3.2999999523162842
   vertex -1 -1 -1.7000000476837158
  endloop
 endfacet
 facet normal -1 0 0
  outer loop
   vertex -1 -1 -1.7000000476837158
   vertex -1 -1 3.2999999523162842
   vertex -1 1 3.2999999523162842
  endloop
 endfacet
 facet normal -1 0 -0
  outer loop
   vertex -1 -1 -1.7000000476837158
   vertex -1 1 3.2999999523162842
   vertex -1 1 -1.7000000476837158
  endloop
 endfacet
 facet normal 1 0 0
  outer loop
   vertex 1 1 -1.7000000476837158
   vertex 1 1 3.2999999523162842
   vertex 1 -1 3.2999999523162842
  endloop
 endfacet
 facet normal 1 0 0
  outer loop
   vertex 1 1 -1.7000000476837158
   vertex 1 -1 3.2999999523162842
   vertex 1 -1 -1.7000000476837158
  endloop
 endfacet
 facet normal -0 1 0
  outer loop
   vertex -1 1 -1.7000000476837158
   vertex -1 1 3.2999999523162842
   vertex 1 1 3.2999999523162842
  endloop
 endfacet
 facet normal 0 1 0
  outer loop
   vertex -1 1 -1.7000000476837158
   vertex 1 1 3.2999999523162842
   vertex 1 1 -1.7000000476837158
  endloop
 endfacet
endsolid
